<?xml version="1.0" encoding="UTF-8"?>
<svg version="1.1" xmlns="http://www.w3.org/2000/svg" width="521" height="561">
<path d="M0 0 C2.48347552 2.1970656 4.91083212 4.44124442 7.32421875 6.71484375 C7.98808594 7.31425781 8.65195312 7.91367187 9.3359375 8.53125 C30.16104904 28.08911337 45.21512623 59.40637581 46.47138977 88.07315063 C46.48615608 89.90793472 46.48615608 89.90793472 46.5012207 91.77978516 C46.5110775 92.80092659 46.5110775 92.80092659 46.52113342 93.84269714 C46.54074818 96.08393504 46.55251236 98.32510576 46.5625 100.56640625 C46.56657553 101.34131786 46.57065105 102.11622948 46.57485008 102.91462326 C46.59567657 107.02901689 46.60998413 111.14337767 46.61938477 115.2578125 C46.62818226 118.62095608 46.64891095 121.98367806 46.6809082 125.34667969 C47.01647957 161.41329159 47.01647957 161.41329159 42.32421875 177.71484375 C42.04167236 178.7193457 41.75912598 179.72384766 41.46801758 180.75878906 C40.75596042 183.06272502 39.96281686 185.28661188 39.07421875 187.52734375 C38.77539795 188.30247314 38.47657715 189.07760254 38.16870117 189.8762207 C29.68911175 211.27625216 16.01039249 227.66713616 -0.22265625 243.6875 C-1.68930623 245.14920771 -3.15513012 246.61174473 -4.62017822 248.07505798 C-7.66312922 251.11044481 -10.7123436 254.13932635 -13.76708984 257.1628418 C-17.66452931 261.02048119 -21.55091989 264.88901428 -25.43333054 268.76177311 C-29.17210075 272.49054089 -32.91575586 276.21438724 -36.66015625 279.9375 C-37.36254173 280.63648973 -38.06492722 281.33547947 -38.78859711 282.05565071 C-51.74592021 294.93739162 -51.74592021 294.93739162 -58.01574707 300.27125549 C-60.90106986 302.78037136 -63.55662929 305.51170461 -66.23046875 308.2421875 C-67.43475695 309.45912183 -68.63918848 310.67591433 -69.84375 311.89257812 C-71.69718074 313.77072454 -73.54893499 315.65046406 -75.39794922 317.53295898 C-90.63701332 333.02931651 -90.63701332 333.02931651 -97.67578125 337.71484375 C-98.33578125 337.71484375 -98.99578125 337.71484375 -99.67578125 337.71484375 C-99.54300781 336.78027344 -99.41023438 335.84570312 -99.2734375 334.8828125 C-98.21211004 327.11076864 -97.42621515 319.36064839 -96.98828125 311.52734375 C-96.94002197 310.72643311 -96.8917627 309.92552246 -96.84204102 309.1003418 C-96.64265989 305.12325733 -96.63903841 301.60457817 -97.67578125 297.71484375 C-98.33578125 297.71484375 -98.99578125 297.71484375 -99.67578125 297.71484375 C-99.41536458 295.6640625 -99.15494792 293.61328125 -98.89453125 291.5625 C-98.28739256 283.6588553 -99.04490922 276.84230586 -100.98828125 269.15234375 C-101.20162109 268.25837891 -101.41496094 267.36441406 -101.63476562 266.44335938 C-102.6570987 262.27163009 -103.78745226 258.2936184 -105.40625 254.3125 C-106.66143446 250.75550034 -106.8735995 250.03711909 -105.67578125 246.71484375 C-104.23046875 245.3984375 -104.23046875 245.3984375 -102.55078125 244.15234375 C-100.55926734 242.21841578 -99.75216997 241.21351617 -99.328125 238.4453125 C-99.77644205 231.15195944 -102.20068957 224.28920965 -104.51953125 217.4140625 C-104.90109375 216.19332031 -105.28265625 214.97257813 -105.67578125 213.71484375 C-105.98765381 212.78639648 -106.29952637 211.85794922 -106.62084961 210.90136719 C-106.68179581 207.36594597 -106.46630675 206.99827972 -104.25415039 204.48266602 C-103.09111062 203.3139689 -101.90851945 202.16452487 -100.7109375 201.03125 C-100.08481064 200.4126561 -99.45868378 199.79406219 -98.81358337 199.15672302 C-96.80430664 197.17997685 -94.7718496 195.22905898 -92.73828125 193.27734375 C-91.40275441 191.96836878 -90.0687517 190.65783682 -88.73632812 189.34570312 C-78.77707061 179.57937189 -78.77707061 179.57937189 -73.66796875 175.21484375 C-67.75461806 170.15458755 -62.27458723 164.61380557 -56.74926758 159.13842773 C-55.41577102 157.82144406 -54.07693901 156.5098395 -52.73266602 155.20385742 C-43.0677913 145.81136613 -33.05176754 135.82864085 -28.67578125 122.71484375 C-29.8171664 111.02923387 -39.45843729 99.68100578 -48.15625 92.44140625 C-63.88583013 81.66237614 -80.92383603 77.35473217 -99.86962891 80.02392578 C-117.863525 83.38891758 -130.64606595 94.31462343 -143.12109375 107 C-143.97581268 107.8599205 -144.83053162 108.719841 -145.71115112 109.6058197 C-148.41257152 112.32487516 -151.10714075 115.05058274 -153.80078125 117.77734375 C-156.50244036 120.50677783 -159.20561888 123.23466306 -161.91183472 125.95957947 C-163.58650043 127.64633831 -165.25848852 129.33576151 -166.92727661 131.02833557 C-171.1214171 135.25814454 -175.37804566 139.30032778 -179.95553589 143.11473083 C-181.80161027 144.83188556 -183.22235637 146.65999387 -184.67578125 148.71484375 C-183.79277344 149.18792969 -182.90976562 149.66101563 -182 150.1484375 C-173.8314996 154.61261795 -166.66850916 159.51697268 -159.67578125 165.71484375 C-158.68707031 166.57078125 -157.69835937 167.42671875 -156.6796875 168.30859375 C-137.65824204 185.02284762 -124.71467475 206.43185492 -117.67578125 230.71484375 C-117.13957153 232.51574463 -117.13957153 232.51574463 -116.5925293 234.35302734 C-112.51665203 249.69127929 -113.06569958 265.49715417 -113.15429688 281.23852539 C-113.17706696 285.32758503 -113.16355984 289.41560242 -113.14053726 293.50462627 C-113.06050968 310.23066041 -113.06908865 326.489863 -117.67578125 342.71484375 C-117.95808594 343.72039307 -118.24039062 344.72594238 -118.53125 345.76196289 C-119.24433147 348.06417833 -120.03813159 350.28765373 -120.92578125 352.52734375 C-121.22170166 353.29884766 -121.51762207 354.07035156 -121.82250977 354.86523438 C-130.4264795 376.65926264 -145.14582514 396.43796977 -163.04101562 411.57226562 C-168.68936048 416.50353419 -173.92255025 421.8504517 -179.20365906 427.16755676 C-181.11954594 429.09636138 -183.03867398 431.02188978 -184.95861816 432.94665527 C-189.03384097 437.03323216 -193.10510843 441.12373522 -197.17578125 445.21484375 C-201.89783445 449.96060273 -206.62155194 454.70468039 -211.34953308 459.4445343 C-213.22815042 461.32957151 -215.10369873 463.21762473 -216.97912598 465.10583496 C-222.22558482 470.37446394 -227.46584816 475.56490632 -233.13143921 480.38867188 C-235.00690342 481.99918808 -236.73178841 483.71602684 -238.4296875 485.51171875 C-257.57647667 505.41919187 -278.95429585 518.3240245 -305.67578125 525.71484375 C-306.35157227 525.90691406 -307.02736328 526.09898437 -307.72363281 526.296875 C-341.09498739 535.29666388 -379.24104862 527.63384065 -408.80078125 511.03515625 C-418.35043147 505.4488923 -426.6450461 498.28042559 -434.67578125 490.71484375 C-435.33964844 490.11542969 -436.00351562 489.51601563 -436.6875 488.8984375 C-457.51261154 469.34057413 -472.56668873 438.02331169 -473.82295227 409.35653687 C-473.83279648 408.13334747 -473.84264069 406.91015808 -473.8527832 405.64990234 C-473.86264 404.62876091 -473.86264 404.62876091 -473.87269592 403.58699036 C-473.89231068 401.34575246 -473.90407486 399.10458174 -473.9140625 396.86328125 C-473.92017579 395.70091383 -473.92017579 395.70091383 -473.92641258 394.51506424 C-473.94723907 390.40067061 -473.96154663 386.28630983 -473.97094727 382.171875 C-473.97974476 378.80873142 -474.00047345 375.44600944 -474.0324707 372.08300781 C-474.36804207 336.01639591 -474.36804207 336.01639591 -469.67578125 319.71484375 C-469.39323486 318.7103418 -469.11068848 317.70583984 -468.81958008 316.67089844 C-468.10752292 314.36696248 -467.31437936 312.14307562 -466.42578125 309.90234375 C-466.12696045 309.12721436 -465.82813965 308.35208496 -465.52026367 307.5534668 C-457.04067425 286.15343534 -443.36195499 269.76255134 -427.12890625 253.7421875 C-425.66225627 252.28047979 -424.19643238 250.81794277 -422.73138428 249.35462952 C-419.68843328 246.31924269 -416.6392189 243.29036115 -413.58447266 240.2668457 C-409.68703319 236.40920631 -405.80064261 232.54067322 -401.91823196 228.66791439 C-398.17946175 224.93914661 -394.43580664 221.21530026 -390.69140625 217.4921875 C-389.98902077 216.79319777 -389.28663528 216.09420803 -388.56296539 215.37403679 C-375.60564229 202.49229588 -375.60564229 202.49229588 -369.33581543 197.15843201 C-366.45049264 194.64931614 -363.79493321 191.91798289 -361.12109375 189.1875 C-359.91680555 187.97056567 -358.71237402 186.75377317 -357.5078125 185.53710938 C-355.65438176 183.65896296 -353.80262751 181.77922344 -351.95361328 179.89672852 C-336.71454918 164.40037099 -336.71454918 164.40037099 -329.67578125 159.71484375 C-329.01578125 159.71484375 -328.35578125 159.71484375 -327.67578125 159.71484375 C-327.82015625 160.67519531 -327.96453125 161.63554687 -328.11328125 162.625 C-329.83564317 175.00543575 -329.89090871 187.23248657 -329.67578125 199.71484375 C-329.01578125 199.71484375 -328.35578125 199.71484375 -327.67578125 199.71484375 C-327.87107422 201.19017578 -327.87107422 201.19017578 -328.0703125 202.6953125 C-329.66148522 217.42625991 -326.36017454 230.9496376 -321.13769531 244.70703125 C-320.59140391 247.08160867 -320.84295715 248.4423456 -321.67578125 250.71484375 C-323.12109375 252.06640625 -323.12109375 252.06640625 -324.80078125 253.33984375 C-326.7531979 255.20616959 -327.62942121 256.13428958 -327.84765625 258.8671875 C-326.95061225 266.14976842 -324.97375868 272.79561409 -322.671875 279.7421875 C-322.40246094 280.58652344 -322.13304687 281.43085938 -321.85546875 282.30078125 C-321.48010986 283.4307251 -321.48010986 283.4307251 -321.09716797 284.58349609 C-320.60731272 287.06115327 -320.87803498 288.33271062 -321.67578125 290.71484375 C-323.60314516 292.91089393 -325.53465144 294.94600298 -327.6171875 296.984375 C-328.21828842 297.58360275 -328.81938934 298.18283051 -329.43870544 298.80021667 C-330.71386465 300.06865459 -331.992616 301.33349001 -333.2746582 302.5949707 C-335.21355797 304.50301393 -337.1418682 306.42123412 -339.06835938 308.34179688 C-349.13082622 318.34002843 -349.13082622 318.34002843 -353.64453125 322.19140625 C-359.57671785 327.25357056 -365.06601912 332.80502481 -370.60229492 338.29125977 C-371.93579148 339.60824344 -373.27462349 340.919848 -374.61889648 342.22583008 C-384.2837712 351.61832137 -394.29979496 361.60104665 -398.67578125 374.71484375 C-397.53479771 386.39634185 -387.89443421 397.75860054 -379.19140625 404.98828125 C-363.63603077 415.66448616 -346.28210157 420.11096884 -327.53369141 417.40576172 C-309.37865439 413.97953998 -296.60680629 403.01273388 -284.01171875 390.2109375 C-283.13480377 389.32882095 -282.25788879 388.44670441 -281.35440063 387.53785706 C-278.58165521 384.74746961 -275.8157555 381.95043001 -273.05078125 379.15234375 C-270.27778915 376.35158309 -267.50328053 373.55236753 -264.72573853 370.75611877 C-263.00656143 369.02484204 -261.29006207 367.29090054 -259.57675171 365.55381775 C-255.29697718 361.23857124 -250.95527941 357.10840014 -246.29067993 353.20960999 C-244.43821329 351.61180056 -244.43821329 351.61180056 -242.67578125 348.71484375 C-243.55878906 348.24175781 -244.44179687 347.76867187 -245.3515625 347.28125 C-253.5200629 342.81706955 -260.68305334 337.91271482 -267.67578125 331.71484375 C-268.66449219 330.85890625 -269.65320313 330.00296875 -270.671875 329.12109375 C-289.69332046 312.40683988 -302.63688775 290.99783258 -309.67578125 266.71484375 C-310.03325439 265.51424316 -310.39072754 264.31364258 -310.7590332 263.07666016 C-314.83491047 247.73840821 -314.28586292 231.93253333 -314.19726562 216.19116211 C-314.17449554 212.10210247 -314.18800266 208.01408508 -314.21102524 203.92506123 C-314.29105282 187.19902709 -314.28247385 170.9398245 -309.67578125 154.71484375 C-309.39347656 153.70929443 -309.11117187 152.70374512 -308.8203125 151.66772461 C-308.10723103 149.36550917 -307.31343091 147.14203377 -306.42578125 144.90234375 C-306.12986084 144.13083984 -305.83394043 143.35933594 -305.52905273 142.56445312 C-296.925083 120.77042486 -282.20573736 100.99171773 -264.31054688 85.85742188 C-258.66220202 80.92615331 -253.42901225 75.5792358 -248.14790344 70.26213074 C-246.23201656 68.33332612 -244.31288852 66.40779772 -242.39294434 64.48303223 C-238.31772153 60.39645534 -234.24645407 56.30595228 -230.17578125 52.21484375 C-225.45372805 47.46908477 -220.73001056 42.72500711 -216.00202942 37.9851532 C-214.12341208 36.10011599 -212.24786377 34.21206277 -210.37243652 32.32385254 C-205.12597768 27.05522356 -199.88571434 21.86478118 -194.22012329 17.04101562 C-192.34465908 15.43049942 -190.61977409 13.71366066 -188.921875 11.91796875 C-169.77508583 -7.98950437 -148.39726665 -20.894337 -121.67578125 -28.28515625 C-120.99999023 -28.47722656 -120.32419922 -28.66929688 -119.62792969 -28.8671875 C-78.70526564 -39.90345923 -31.66379511 -27.04134327 0 0 Z M-222.72851562 184.37817383 C-230.4176807 192.19829978 -237.65644506 200.59013711 -239.67578125 211.71484375 C-237.1750669 220.37987044 -231.68089944 227.21677366 -225.74780273 233.79907227 C-218.09025969 242.49762688 -213.48745678 252.64987473 -213.36328125 264.27734375 C-213.35131714 265.34480835 -213.35131714 265.34480835 -213.33911133 266.43383789 C-213.4011635 271.98907409 -214.78282985 276.14388315 -216.98046875 281.24609375 C-218.20044873 285.57770808 -216.45678989 288.78729195 -214.67578125 292.71484375 C-211.46181925 302.29371089 -213.38995848 314.48324644 -216.67578125 323.71484375 C-204.72106153 313.93370943 -190.50018439 301.75532198 -187.67578125 285.71484375 C-190.1764956 277.04981706 -195.67066306 270.21291384 -201.60375977 263.63061523 C-209.26130281 254.93206062 -213.86410572 244.77981277 -213.98828125 233.15234375 C-214.00024536 232.08487915 -214.00024536 232.08487915 -214.01245117 230.99584961 C-213.950399 225.44061341 -212.56873265 221.28580435 -210.37109375 216.18359375 C-209.15111377 211.85197942 -210.89477261 208.64239555 -212.67578125 204.71484375 C-215.88974325 195.13597661 -213.96160402 182.94644106 -210.67578125 173.71484375 C-214.34688134 173.71484375 -220.219137 181.88331023 -222.72851562 184.37817383 Z " fill="#2C95DE" transform="translate(474.67578125,32.28515625)"/>
<path d="M0 0 C2.48347552 2.1970656 4.91083212 4.44124442 7.32421875 6.71484375 C7.98808594 7.31425781 8.65195312 7.91367187 9.3359375 8.53125 C30.16104904 28.08911337 45.21512623 59.40637581 46.47138977 88.07315063 C46.48123398 89.29634003 46.49107819 90.51952942 46.5012207 91.77978516 C46.5077919 92.46054611 46.5143631 93.14130707 46.52113342 93.84269714 C46.54074818 96.08393504 46.55251236 98.32510576 46.5625 100.56640625 C46.56657553 101.34131786 46.57065105 102.11622948 46.57485008 102.91462326 C46.59567657 107.02901689 46.60998413 111.14337767 46.61938477 115.2578125 C46.62818226 118.62095608 46.64891095 121.98367806 46.6809082 125.34667969 C47.01647957 161.41329159 47.01647957 161.41329159 42.32421875 177.71484375 C42.04167236 178.7193457 41.75912598 179.72384766 41.46801758 180.75878906 C40.75596042 183.06272502 39.96281686 185.28661188 39.07421875 187.52734375 C38.77539795 188.30247314 38.47657715 189.07760254 38.16870117 189.8762207 C29.68911175 211.27625216 16.01039249 227.66713616 -0.22265625 243.6875 C-1.68930623 245.14920771 -3.15513012 246.61174473 -4.62017822 248.07505798 C-7.66312922 251.11044481 -10.7123436 254.13932635 -13.76708984 257.1628418 C-17.66452931 261.02048119 -21.55091989 264.88901428 -25.43333054 268.76177311 C-29.17210075 272.49054089 -32.91575586 276.21438724 -36.66015625 279.9375 C-37.36254173 280.63648973 -38.06492722 281.33547947 -38.78859711 282.05565071 C-51.74592021 294.93739162 -51.74592021 294.93739162 -58.01574707 300.27125549 C-60.90106986 302.78037136 -63.55662929 305.51170461 -66.23046875 308.2421875 C-67.43475695 309.45912183 -68.63918848 310.67591433 -69.84375 311.89257812 C-71.69718074 313.77072454 -73.54893499 315.65046406 -75.39794922 317.53295898 C-90.63701332 333.02931651 -90.63701332 333.02931651 -97.67578125 337.71484375 C-98.33578125 337.71484375 -98.99578125 337.71484375 -99.67578125 337.71484375 C-99.54300781 336.78027344 -99.41023437 335.84570312 -99.2734375 334.8828125 C-98.21211004 327.11076864 -97.42621515 319.36064839 -96.98828125 311.52734375 C-96.94002197 310.72643311 -96.8917627 309.92552246 -96.84204102 309.1003418 C-96.64265989 305.12325733 -96.63903841 301.60457817 -97.67578125 297.71484375 C-98.33578125 297.71484375 -98.99578125 297.71484375 -99.67578125 297.71484375 C-99.41536458 295.6640625 -99.15494792 293.61328125 -98.89453125 291.5625 C-98.28739256 283.6588553 -99.04490922 276.84230586 -100.98828125 269.15234375 C-101.20162109 268.25837891 -101.41496094 267.36441406 -101.63476562 266.44335938 C-102.6570987 262.27163009 -103.78745226 258.2936184 -105.40625 254.3125 C-106.66143446 250.75550034 -106.8735995 250.03711909 -105.67578125 246.71484375 C-104.23046875 245.3984375 -104.23046875 245.3984375 -102.55078125 244.15234375 C-100.55926734 242.21841578 -99.75216997 241.21351617 -99.328125 238.4453125 C-99.77644205 231.15195944 -102.20068957 224.28920965 -104.51953125 217.4140625 C-104.90109375 216.19332031 -105.28265625 214.97257813 -105.67578125 213.71484375 C-105.98765381 212.78639648 -106.29952637 211.85794922 -106.62084961 210.90136719 C-106.68179581 207.36594597 -106.46630675 206.99827972 -104.25415039 204.48266602 C-103.09111062 203.3139689 -101.90851945 202.16452487 -100.7109375 201.03125 C-100.08481064 200.4126561 -99.45868378 199.79406219 -98.81358337 199.15672302 C-96.80430664 197.17997685 -94.7718496 195.22905898 -92.73828125 193.27734375 C-91.40275441 191.96836878 -90.0687517 190.65783682 -88.73632812 189.34570312 C-78.77707061 179.57937189 -78.77707061 179.57937189 -73.66796875 175.21484375 C-67.75461806 170.15458755 -62.27458723 164.61380557 -56.74926758 159.13842773 C-55.41577102 157.82144406 -54.07693901 156.5098395 -52.73266602 155.20385742 C-38.10643346 140.98983336 -25.82651239 125.82913619 -25.38330078 104.51904297 C-25.24354854 85.37980374 -30.20623989 70.3499712 -43.8203125 56.4453125 C-56.12772873 44.67666141 -71.12874603 39.29418066 -87.98828125 39.40234375 C-89.37358032 39.41080322 -89.37358032 39.41080322 -90.78686523 39.41943359 C-112.13777084 39.79825511 -126.81457848 50.40510514 -141.23828125 65.21484375 C-142.84123344 66.8527271 -144.44667342 68.4881797 -146.0546875 70.12109375 C-146.75150635 70.83587891 -147.4483252 71.55066406 -148.16625977 72.28710938 C-150.11060589 74.16808786 -152.06831736 75.91509829 -154.12451172 77.66577148 C-159.76464296 82.56534722 -164.97227478 87.90040283 -170.23422432 93.19812202 C-172.15403969 95.13085006 -174.07709192 97.06030626 -176.0009613 98.98899841 C-180.08290314 103.08229415 -184.16088553 107.17952019 -188.23828125 111.27734375 C-192.97113506 116.03388691 -197.70564581 120.78875635 -202.44441032 125.53941154 C-204.32916146 127.4305942 -206.21085011 129.32478699 -208.09242249 131.21913147 C-209.25881219 132.38915692 -210.42534434 133.5590404 -211.59204102 134.72875977 C-212.1059993 135.24788437 -212.61995758 135.76700897 -213.14949036 136.30186462 C-216.33861783 139.49144674 -219.65120456 142.46021303 -223.11999416 145.34385586 C-233.57860473 154.56017381 -240.71306112 169.27893051 -241.87915039 183.13061523 C-242.26584939 192.86205552 -242.46148771 202.59658303 -238.67578125 211.71484375 C-238.22332031 212.80796875 -237.77085937 213.90109375 -237.3046875 215.02734375 C-233.98902422 222.27886632 -230.07143055 227.89396043 -224.74658203 233.80004883 C-215.19743425 244.65014784 -211.84225812 256.50313379 -212.50097656 270.72753906 C-213.64463558 283.72947263 -223.25605235 292.47203537 -231.80078125 301.33984375 C-232.49397461 302.07614014 -233.18716797 302.81243652 -233.90136719 303.57104492 C-234.57200195 304.25013916 -235.24263672 304.9292334 -235.93359375 305.62890625 C-236.53316895 306.24717285 -237.13274414 306.86543945 -237.75048828 307.50244141 C-239.67578125 308.71484375 -239.67578125 308.71484375 -242.21191406 308.51708984 C-245.57474831 307.42213608 -248.37442829 305.65253116 -251.30078125 303.71484375 C-252.21947998 303.11470459 -252.21947998 303.11470459 -253.15673828 302.50244141 C-258.99066011 298.62478658 -264.36631905 294.28030488 -269.67578125 289.71484375 C-270.3821875 289.1425 -271.08859375 288.57015625 -271.81640625 287.98046875 C-277.58403698 283.21195515 -282.10787112 277.6177417 -286.67578125 271.71484375 C-287.34609375 270.87179687 -288.01640625 270.02875 -288.70703125 269.16015625 C-297.11067692 258.18872996 -303.14317799 246.15408948 -307.55078125 233.08984375 C-307.8247876 232.28047363 -308.09879395 231.47110352 -308.38110352 230.63720703 C-312.52499472 217.67452905 -314.23769108 205.06573559 -314.11328125 191.52734375 C-314.10990753 190.80939636 -314.10653381 190.09144897 -314.10305786 189.35174561 C-313.84282449 150.95534996 -297.5711589 118.91050863 -270.92578125 91.77734375 C-268.78359846 89.71972759 -266.57798031 87.77503256 -264.31054688 85.85742188 C-258.66220202 80.92615331 -253.42901225 75.5792358 -248.14790344 70.26213074 C-246.23201656 68.33332612 -244.31288852 66.40779772 -242.39294434 64.48303223 C-238.31772153 60.39645534 -234.24645407 56.30595228 -230.17578125 52.21484375 C-225.45372805 47.46908477 -220.73001056 42.72500711 -216.00202942 37.9851532 C-214.12341208 36.10011599 -212.24786377 34.21206277 -210.37243652 32.32385254 C-205.12597768 27.05522356 -199.88571434 21.86478118 -194.22012329 17.04101562 C-192.34465908 15.43049942 -190.61977409 13.71366066 -188.921875 11.91796875 C-169.77508583 -7.98950437 -148.39726665 -20.894337 -121.67578125 -28.28515625 C-120.99999023 -28.47722656 -120.32419922 -28.66929688 -119.62792969 -28.8671875 C-78.70526564 -39.90345923 -31.66379511 -27.04134327 0 0 Z " fill="#2C95DE" transform="translate(474.67578125,32.28515625)"/>
<path d="M0 0 C0.66 0.33 1.32 0.66 2 1 C3.07117316 46.76381328 -7.35040885 81.0827537 -39.04296875 115.19921875 C-41.69881141 117.90368096 -44.47218231 120.41071386 -47.36523438 122.85742188 C-53.01357923 127.78869044 -58.246769 133.13560795 -63.52787781 138.45271301 C-65.44376469 140.38151763 -67.36289273 142.30704603 -69.28283691 144.23181152 C-73.35805972 148.31838841 -77.42932718 152.40889147 -81.5 156.5 C-86.2220532 161.24575898 -90.94577069 165.98983664 -95.67375183 170.72969055 C-97.55236917 172.61472776 -99.42791748 174.50278098 -101.30334473 176.39099121 C-106.54980357 181.65962019 -111.79006691 186.85006257 -117.45565796 191.67382812 C-119.33112217 193.28434433 -121.05600716 195.00118309 -122.75390625 196.796875 C-141.90069542 216.70434812 -163.2785146 229.60918075 -190 237 C-190.67579102 237.19207031 -191.35158203 237.38414062 -192.04785156 237.58203125 C-225.41920614 246.58182013 -263.56526737 238.9189969 -293.125 222.3203125 C-302.67465022 216.73404855 -310.96926485 209.56558184 -319 202 C-319.66386719 201.40058594 -320.32773437 200.80117188 -321.01171875 200.18359375 C-341.96213168 180.50805382 -354.02980463 152.07961176 -358 124 C-358.07990728 121.38832083 -358.1171568 118.8055707 -358.09765625 116.1953125 C-358.0962413 115.4713327 -358.09482635 114.74735291 -358.09336853 114.00143433 C-358.08781075 111.70924593 -358.07526633 109.41715843 -358.0625 107.125 C-358.05747953 105.56250142 -358.05291759 104.00000129 -358.04882812 102.4375 C-358.03785519 98.62496165 -358.0206201 94.81249788 -358 91 C-357.01 90.505 -357.01 90.505 -356 90 C-355.70867187 91.19753906 -355.41734375 92.39507812 -355.1171875 93.62890625 C-345.86067779 130.76998041 -325.83443421 161.26698245 -292.75 181.1875 C-262.13411928 198.93504156 -223.70517857 204.64137261 -189.29638672 195.64160156 C-156.1435711 186.37883317 -132.95422754 166.32145769 -109.1875 142.25 C-106.5773432 139.61203699 -103.96564112 136.9756498 -101.35090637 134.34222412 C-99.73743463 132.71668643 -98.12663939 131.08848579 -96.51908875 129.45709229 C-93.17057203 126.07895278 -89.80977447 122.78148249 -86.19799805 119.68481445 C-80.52955173 114.80411817 -75.27924224 109.48480782 -69.9765625 104.21484375 C-69.41165478 103.65401155 -68.84674706 103.09317936 -68.26472092 102.51535225 C-65.27412381 99.54548749 -62.28672601 96.57244555 -59.30175781 93.59692383 C-56.2557156 90.56191323 -53.19817352 87.5387716 -50.13784218 84.51817989 C-47.75266568 82.15943279 -45.37668924 79.79157019 -43.00291061 77.42135811 C-41.88142205 76.30466852 -40.75662599 75.19128841 -39.62816238 74.08164787 C-18.63896178 53.42095579 -5.86458297 28.77652514 0 0 Z " fill="#1E2832" transform="translate(359,321)"/>
<path d="M0 0 C12.98364367 10.41519148 22.45489468 24.1770568 25.34082031 40.77929688 C25.60820934 44.2847186 25.62107106 47.76516888 25.59082031 51.27929688 C25.59855469 52.17777344 25.60628906 53.07625 25.61425781 54.00195312 C25.59796846 59.59734547 24.92149603 64.41001747 23.34082031 69.77929688 C22.68082031 69.77929688 22.02082031 69.77929688 21.34082031 69.77929688 C21.00050781 69.0290625 20.66019531 68.27882813 20.30957031 67.50585938 C11.47979809 48.8600106 -0.93050975 39.41586647 -19.43652344 31.60742188 C-34.07514568 26.70475534 -51.82278009 29.03486285 -65.67480469 35.09960938 C-76.28524028 40.52337953 -84.81875124 48.63900144 -93.10449219 57.06445312 C-93.95921112 57.92437363 -94.81393005 58.78429413 -95.69454956 59.67027283 C-98.39596996 62.38932829 -101.09053919 65.11503586 -103.78417969 67.84179688 C-106.4858388 70.57123096 -109.18901732 73.29911618 -111.89523315 76.02403259 C-113.56989887 77.71079143 -115.24188695 79.40021464 -116.91067505 81.0927887 C-121.09612444 85.31383266 -125.35261963 89.37260643 -129.86950684 93.23831177 C-133.00325799 95.93660596 -136.01500012 98.76670742 -139.03417969 101.59179688 C-139.68193359 102.19781738 -140.3296875 102.80383789 -140.99707031 103.42822266 C-148.1460572 110.14237792 -155.14366752 116.91276346 -161.48730469 124.40429688 C-163.31744123 126.40559727 -165.18776693 128.27888396 -167.14355469 130.15429688 C-176.41929031 139.07309457 -184.06069555 147.53162692 -188.65917969 159.77929688 C-189.31917969 159.77929688 -189.97917969 159.77929688 -190.65917969 159.77929688 C-193.98215019 147.14554184 -194.7408424 132.01900061 -189.65917969 119.77929688 C-189.20671875 118.68617188 -188.75425781 117.59304687 -188.28808594 116.46679688 C-183.05199532 105.01520301 -175.61048938 96.30907466 -166.28588867 87.89624023 C-160.03130021 82.20346117 -154.03663271 76.27476361 -148.0787735 70.27405548 C-146.2466412 68.4288799 -144.41115801 66.58709225 -142.57489014 64.74603271 C-138.6834491 60.84330802 -134.79601322 56.93660962 -130.90917969 53.02929688 C-126.38377576 48.48014341 -121.85666434 43.93271498 -117.32530975 39.38948822 C-115.53088013 37.58865287 -113.7395246 35.78479953 -111.94830322 33.98077393 C-106.84974741 28.85965641 -101.73128618 23.82459898 -96.228302 19.13247681 C-94.31474076 17.48225958 -92.56152619 15.72078104 -90.83496094 13.87695312 C-79.80955922 2.33217765 -69.47693339 -6.10343488 -53.65917969 -10.22070312 C-52.92828125 -10.41277344 -52.19738281 -10.60484375 -51.44433594 -10.80273438 C-33.5191303 -13.49277225 -14.84950533 -10.9251805 0 0 Z " fill="#1E2832" transform="translate(424.6591796875,82.220703125)"/>
<path d="M0 0 C0.99 0.495 0.99 0.495 2 1 C2.95018581 41.59486156 -3.95992825 77.22228972 -32.60168457 107.95437622 C-36.51198459 112.03239724 -40.52584896 116.00431357 -44.546875 119.97265625 C-46.01352498 121.43436396 -47.47934887 122.89690098 -48.94439697 124.36021423 C-51.98734797 127.39560106 -55.03656235 130.4244826 -58.09130859 133.44799805 C-61.98874806 137.30563744 -65.87513864 141.17417053 -69.75754929 145.04692936 C-73.4963195 148.77569714 -77.23997461 152.49954349 -80.984375 156.22265625 C-81.68676048 156.92164598 -82.38914597 157.62063572 -83.11281586 158.34080696 C-96.07013896 171.22254787 -96.07013896 171.22254787 -102.33996582 176.55641174 C-105.22528861 179.06552761 -107.88084804 181.79686086 -110.5546875 184.52734375 C-111.7589757 185.74427808 -112.96340723 186.96107058 -114.16796875 188.17773438 C-116.02139949 190.05588079 -117.87315374 191.93562031 -119.72216797 193.81811523 C-134.96123207 209.31447276 -134.96123207 209.31447276 -142 214 C-142.66 214 -143.32 214 -144 214 C-143.80083984 212.71996094 -143.80083984 212.71996094 -143.59765625 211.4140625 C-143.33275391 209.53847656 -143.33275391 209.53847656 -143.0625 207.625 C-142.96388672 206.93398193 -142.86527344 206.24296387 -142.76367188 205.53100586 C-142.16093141 200.81476396 -141.95682313 196.22072216 -141.99609375 191.46484375 C-142.07374816 173.83353487 -142.07374816 173.83353487 -138.99609375 168.578125 C-136.44001115 166.31472361 -133.93300611 164.73793305 -131 163 C-124.81071146 158.05525856 -119.2636305 152.3871195 -113.69447327 146.76963806 C-112.18187668 145.24406023 -110.66598798 143.72181914 -109.14929199 142.20031738 C-105.93000888 138.96971047 -102.71469888 135.73516777 -99.5 132.5 C-95.7692435 128.74548873 -92.03679249 124.99269387 -88.30006409 121.24412537 C-86.82029444 119.75796311 -85.34361435 118.26878004 -83.86706543 116.77941895 C-79.34953744 112.24557429 -74.78804611 107.86166625 -69.92974854 103.69598389 C-66.30152893 100.50727724 -62.90088116 97.0842511 -59.4765625 93.6796875 C-58.69034515 92.89917023 -57.90412781 92.11865295 -57.09408569 91.31448364 C-55.44057002 89.67035794 -53.78845982 88.02481764 -52.13769531 86.37792969 C-49.645788 83.89570721 -47.1433945 81.42438836 -44.640625 78.953125 C-34.06434996 68.44793745 -23.92064682 57.97971406 -16.6875 44.8125 C-16.36612061 44.22847412 -16.04474121 43.64444824 -15.71362305 43.04272461 C-14.79804267 41.36780389 -13.89848389 39.68415366 -13 38 C-12.29230469 36.72382813 -12.29230469 36.72382813 -11.5703125 35.421875 C-5.68548662 24.38325752 -2.52668598 12.18150232 0 0 Z " fill="#1F2933" transform="translate(519,156)"/>
<path d="M0 0 C0.33 0 0.66 0 1 0 C1.21914062 1.0415625 1.43828125 2.083125 1.6640625 3.15625 C6.1431413 23.7087401 13.76581091 42.46299769 27 59 C27.66539795 59.83362061 27.66539795 59.83362061 28.34423828 60.68408203 C38.31681497 73.06278363 49.78867129 82.25643899 63 91 C63.73863281 91.49113281 64.47726563 91.98226562 65.23828125 92.48828125 C68.35322742 94.49132826 68.35322742 94.49132826 71.93334961 94.81567383 C74.57728927 93.77215317 76.00941524 92.34644091 78.00390625 90.32421875 C78.74447266 89.57849609 79.48503906 88.83277344 80.24804688 88.06445312 C81.01181641 87.28005859 81.77558594 86.49566406 82.5625 85.6875 C83.71395508 84.52831055 83.71395508 84.52831055 84.88867188 83.34570312 C88.98375834 79.24425164 88.98375834 79.24425164 92.61694336 74.74536133 C93.07335205 74.16939209 93.52976074 73.59342285 94 73 C94.66 73 95.32 73 96 73 C100.92901023 83.3861287 101.96132975 94.81705621 98.5625 105.875 C95.92858388 111.99658437 91.6745529 116.37022251 87 121 C85.6919672 122.31957826 84.38473407 123.63994948 83.078125 124.9609375 C79.40584289 128.66141122 75.71016714 132.33754025 72 136 C46.59525017 128.34886189 25.31784184 101.74407934 13.125 79.59375 C8.80914276 71.33409218 5.53615565 62.94638728 3 54 C2.70367676 53.01894287 2.70367676 53.01894287 2.40136719 52.01806641 C-1.31663338 39.37017085 -6.14957596 12.29915192 0 0 Z " fill="#1E2832" transform="translate(162,245)"/>
<path d="M0 0 C0.96111784 3.64510498 1.91837798 7.29121279 2.875 10.9375 C3.14441406 11.95908203 3.41382813 12.98066406 3.69140625 14.03320312 C3.95566406 15.04189453 4.21992188 16.05058594 4.4921875 17.08984375 C4.73308105 18.00628662 4.97397461 18.92272949 5.22216797 19.86694336 C5.47885254 20.90085205 5.73553711 21.93476074 6 23 C6.24597931 23.70193481 6.49195862 24.40386963 6.74539185 25.1270752 C8.53446624 30.89343891 8.53446624 30.89343891 7.1020813 33.85905457 C5.56094446 35.73188818 3.92362616 37.34078328 2.1328125 38.9765625 C1.19149979 39.89808609 1.19149979 39.89808609 0.23117065 40.83822632 C-1.77983035 42.79442962 -3.82582666 44.70890239 -5.875 46.625 C-7.21598818 47.91934511 -8.55455913 49.21619953 -9.890625 50.515625 C-14.82536708 55.28988704 -19.79249067 60.0242356 -25.01171875 64.48828125 C-30.91535826 69.56177134 -36.40015083 75.10000442 -41.92651367 80.57641602 C-43.26001023 81.89339969 -44.59884224 83.20500425 -45.94311523 84.51098633 C-55.78852419 94.07892389 -65.18524381 103.84455295 -70 117 C-70.66 117 -71.32 117 -72 117 C-75.61568148 104.62601439 -76.04600223 89.00912358 -71 77 C-70.32130859 75.34484375 -70.32130859 75.34484375 -69.62890625 73.65625 C-66.76905246 67.34674045 -63.75814957 62.38342582 -59.01000977 57.32910156 C-58.53265412 56.81901173 -58.05529848 56.30892189 -57.56347752 55.78337479 C-52.09639261 49.97469104 -46.47793151 44.31383562 -40.83984375 38.671875 C-39.71685493 37.54566216 -38.59393663 36.419379 -37.47108459 35.29302979 C-35.14596408 32.96199197 -32.8188589 30.63295721 -30.49047852 28.30517578 C-27.50279892 25.31759916 -24.52213944 22.32311766 -21.54305172 19.32697678 C-19.23970229 17.01255549 -16.93186975 14.70264606 -14.62271309 12.39402008 C-13.52025311 11.29037925 -12.41941614 10.18511469 -11.3202343 9.07820892 C-9.79620703 7.54444936 -8.26605506 6.01707725 -6.73413086 4.49121094 C-5.86574081 3.62139587 -4.99735077 2.75158081 -4.10264587 1.85540771 C-2 0 -2 0 0 0 Z " fill="#1F2933" transform="translate(146,290)"/>
<path d="M0 0 C3.34119477 1.11373159 3.74464601 1.67074231 5.6875 4.4375 C8.00064814 7.6690196 10.43539717 10.71464789 13 13.75 C22.49439785 25.62253574 26.2165332 38.25724436 26.3125 53.25 C26.31813965 54.08982422 26.3237793 54.92964844 26.32958984 55.79492188 C26.26692516 61.16921544 25.49325835 65.83606277 24 71 C23.34 71 22.68 71 22 71 C21.62230469 70.21238281 21.24460937 69.42476563 20.85546875 68.61328125 C17.63857982 62.24730666 14.28178491 56.8672287 9.5 51.5625 C-0.69600329 40.18326543 -4.88650138 28.22741917 -4.20556641 13.02685547 C-3.73485714 8.38572919 -1.98383342 4.18022042 0 0 Z " fill="#1F2933" transform="translate(264,246)"/>
<path d="M0 0 C1.66169661 14.18035343 2.1425523 27.76441593 1 42 C-1.29720195 39.70279805 -1.49857016 38.60838529 -2.18359375 35.4921875 C-2.38919922 34.58726562 -2.59480469 33.68234375 -2.80664062 32.75 C-3.01482422 31.80125 -3.22300781 30.8525 -3.4375 29.875 C-5.14358139 22.09261567 -5.14358139 22.09261567 -7.72265625 14.5703125 C-8.99759662 11.0067177 -9.1935462 10.33232266 -8 7 C-6.40625 5.078125 -6.40625 5.078125 -4.5 3.25 C-3.8709375 2.63640625 -3.241875 2.0228125 -2.59375 1.390625 C-1 0 -1 0 0 0 Z " fill="#252E38" transform="translate(377,272)"/>
<path d="M0 0 C0.66 0 1.32 0 2 0 C1.67 2.97 1.34 5.94 1 9 C0.34 9 -0.32 9 -1 9 C-1.09765625 2.84765625 -1.09765625 2.84765625 -1 1 C-0.67 0.67 -0.34 0.34 0 0 Z " fill="#333A45" transform="translate(145,232)"/>
</svg>
